<mxfile host="app.diagrams.net" modified="2021-10-11T15:10:28.783Z" agent="5.0 (Windows NT 10.0; Win64; x64) AppleWebKit/537.36 (KHTML, like Gecko) Chrome/94.0.4606.71 Safari/537.36" etag="q4qb8k3svwNGdGy8vTHx" version="15.5.1" type="github">
  <diagram id="HoqPUm8pya5SjE1g9Fhk" name="Page-1">
    <mxGraphModel dx="868" dy="520" grid="1" gridSize="10" guides="1" tooltips="1" connect="1" arrows="1" fold="1" page="1" pageScale="1" pageWidth="850" pageHeight="1100" math="0" shadow="0">
      <root>
        <mxCell id="0" />
        <mxCell id="1" parent="0" />
        <mxCell id="p6jUWLpT5OnZB1usch39-8" style="edgeStyle=orthogonalEdgeStyle;rounded=0;orthogonalLoop=1;jettySize=auto;html=1;shape=flexArrow;" edge="1" parent="1" source="p6jUWLpT5OnZB1usch39-1">
          <mxGeometry relative="1" as="geometry">
            <mxPoint x="610" y="200" as="targetPoint" />
          </mxGeometry>
        </mxCell>
        <mxCell id="p6jUWLpT5OnZB1usch39-1" value="" style="fontColor=#0066CC;verticalAlign=top;verticalLabelPosition=bottom;labelPosition=center;align=center;html=1;outlineConnect=0;fillColor=#CCCCCC;strokeColor=#6881B3;gradientColor=none;gradientDirection=north;strokeWidth=2;shape=mxgraph.networks.server;" vertex="1" parent="1">
          <mxGeometry x="670" y="150" width="90" height="100" as="geometry" />
        </mxCell>
        <mxCell id="p6jUWLpT5OnZB1usch39-9" style="edgeStyle=orthogonalEdgeStyle;rounded=0;orthogonalLoop=1;jettySize=auto;html=1;shape=arrow;" edge="1" parent="1" source="p6jUWLpT5OnZB1usch39-2" target="p6jUWLpT5OnZB1usch39-3">
          <mxGeometry relative="1" as="geometry" />
        </mxCell>
        <mxCell id="p6jUWLpT5OnZB1usch39-2" value="" style="fontColor=#0066CC;verticalAlign=top;verticalLabelPosition=bottom;labelPosition=center;align=center;html=1;outlineConnect=0;fillColor=#CCCCCC;strokeColor=#6881B3;gradientColor=none;gradientDirection=north;strokeWidth=2;shape=mxgraph.networks.storage;" vertex="1" parent="1">
          <mxGeometry x="510" y="150" width="100" height="100" as="geometry" />
        </mxCell>
        <mxCell id="p6jUWLpT5OnZB1usch39-10" style="edgeStyle=orthogonalEdgeStyle;shape=arrow;rounded=0;orthogonalLoop=1;jettySize=auto;html=1;" edge="1" parent="1" source="p6jUWLpT5OnZB1usch39-3">
          <mxGeometry relative="1" as="geometry">
            <mxPoint x="300" y="200" as="targetPoint" />
          </mxGeometry>
        </mxCell>
        <mxCell id="p6jUWLpT5OnZB1usch39-13" style="edgeStyle=orthogonalEdgeStyle;shape=arrow;rounded=0;orthogonalLoop=1;jettySize=auto;html=1;" edge="1" parent="1" source="p6jUWLpT5OnZB1usch39-3">
          <mxGeometry relative="1" as="geometry">
            <mxPoint x="140" y="310" as="targetPoint" />
          </mxGeometry>
        </mxCell>
        <mxCell id="p6jUWLpT5OnZB1usch39-14" style="edgeStyle=orthogonalEdgeStyle;shape=arrow;rounded=0;orthogonalLoop=1;jettySize=auto;html=1;" edge="1" parent="1" source="p6jUWLpT5OnZB1usch39-3">
          <mxGeometry relative="1" as="geometry">
            <mxPoint x="100" y="440" as="targetPoint" />
          </mxGeometry>
        </mxCell>
        <mxCell id="p6jUWLpT5OnZB1usch39-3" value="" style="html=1;outlineConnect=0;fillColor=#CCCCCC;strokeColor=#6881B3;gradientColor=none;gradientDirection=north;strokeWidth=2;shape=mxgraph.networks.cloud;fontColor=#ffffff;" vertex="1" parent="1">
          <mxGeometry x="350" y="175" width="90" height="50" as="geometry" />
        </mxCell>
        <mxCell id="p6jUWLpT5OnZB1usch39-4" value="" style="fontColor=#0066CC;verticalAlign=top;verticalLabelPosition=bottom;labelPosition=center;align=center;html=1;outlineConnect=0;fillColor=#CCCCCC;strokeColor=#6881B3;gradientColor=none;gradientDirection=north;strokeWidth=2;shape=mxgraph.networks.monitor;" vertex="1" parent="1">
          <mxGeometry x="40" y="150" width="80" height="65" as="geometry" />
        </mxCell>
        <mxCell id="p6jUWLpT5OnZB1usch39-5" value="" style="fontColor=#0066CC;verticalAlign=top;verticalLabelPosition=bottom;labelPosition=center;align=center;html=1;outlineConnect=0;fillColor=#CCCCCC;strokeColor=#6881B3;gradientColor=none;gradientDirection=north;strokeWidth=2;shape=mxgraph.networks.laptop;" vertex="1" parent="1">
          <mxGeometry x="30" y="280" width="100" height="55" as="geometry" />
        </mxCell>
        <mxCell id="p6jUWLpT5OnZB1usch39-6" value="" style="fontColor=#0066CC;verticalAlign=top;verticalLabelPosition=bottom;labelPosition=center;align=center;html=1;outlineConnect=0;fillColor=#CCCCCC;strokeColor=#6881B3;gradientColor=none;gradientDirection=north;strokeWidth=2;shape=mxgraph.networks.mobile;" vertex="1" parent="1">
          <mxGeometry x="40" y="380" width="50" height="100" as="geometry" />
        </mxCell>
        <mxCell id="p6jUWLpT5OnZB1usch39-11" style="edgeStyle=orthogonalEdgeStyle;shape=arrow;rounded=0;orthogonalLoop=1;jettySize=auto;html=1;" edge="1" parent="1" target="p6jUWLpT5OnZB1usch39-4">
          <mxGeometry relative="1" as="geometry">
            <mxPoint x="190" y="183" as="sourcePoint" />
          </mxGeometry>
        </mxCell>
        <mxCell id="p6jUWLpT5OnZB1usch39-7" value="" style="fontColor=#0066CC;verticalAlign=top;verticalLabelPosition=bottom;labelPosition=center;align=center;html=1;outlineConnect=0;fillColor=#CCCCCC;strokeColor=#6881B3;gradientColor=none;gradientDirection=north;strokeWidth=2;shape=mxgraph.networks.wireless_modem;" vertex="1" parent="1">
          <mxGeometry x="190" y="130" width="100" height="85" as="geometry" />
        </mxCell>
        <mxCell id="p6jUWLpT5OnZB1usch39-15" value="Internet" style="text;html=1;resizable=0;autosize=1;align=center;verticalAlign=middle;points=[];fillColor=none;strokeColor=none;rounded=0;" vertex="1" parent="1">
          <mxGeometry x="365" y="225" width="60" height="20" as="geometry" />
        </mxCell>
        <mxCell id="p6jUWLpT5OnZB1usch39-16" value="PC Admin" style="text;html=1;resizable=0;autosize=1;align=center;verticalAlign=middle;points=[];fillColor=none;strokeColor=none;rounded=0;" vertex="1" parent="1">
          <mxGeometry x="45" y="120" width="70" height="20" as="geometry" />
        </mxCell>
        <mxCell id="p6jUWLpT5OnZB1usch39-17" value="Modem" style="text;html=1;resizable=0;autosize=1;align=center;verticalAlign=middle;points=[];fillColor=none;strokeColor=none;rounded=0;" vertex="1" parent="1">
          <mxGeometry x="230" y="100" width="60" height="20" as="geometry" />
        </mxCell>
        <mxCell id="p6jUWLpT5OnZB1usch39-18" value="PC User" style="text;html=1;resizable=0;autosize=1;align=center;verticalAlign=middle;points=[];fillColor=none;strokeColor=none;rounded=0;" vertex="1" parent="1">
          <mxGeometry x="50" y="260" width="60" height="20" as="geometry" />
        </mxCell>
        <mxCell id="p6jUWLpT5OnZB1usch39-19" value="Mobile Device User" style="text;html=1;resizable=0;autosize=1;align=center;verticalAlign=middle;points=[];fillColor=none;strokeColor=none;rounded=0;" vertex="1" parent="1">
          <mxGeometry x="5" y="360" width="120" height="20" as="geometry" />
        </mxCell>
        <mxCell id="p6jUWLpT5OnZB1usch39-20" value="Storage" style="text;html=1;resizable=0;autosize=1;align=center;verticalAlign=middle;points=[];fillColor=none;strokeColor=none;rounded=0;" vertex="1" parent="1">
          <mxGeometry x="530" y="250" width="60" height="20" as="geometry" />
        </mxCell>
        <mxCell id="p6jUWLpT5OnZB1usch39-21" value="Provider Hosting" style="text;html=1;resizable=0;autosize=1;align=center;verticalAlign=middle;points=[];fillColor=none;strokeColor=none;rounded=0;" vertex="1" parent="1">
          <mxGeometry x="661" y="250" width="100" height="20" as="geometry" />
        </mxCell>
      </root>
    </mxGraphModel>
  </diagram>
</mxfile>
